<?xml version="1.0" encoding="UTF-8" standalone="no"?>
<!-- Created with Inkscape (http://www.inkscape.org/) -->

<svg
   width="250"
   height="280"
   viewBox="0 0 66.145833 74.083334"
   version="1.1"
   id="svg1"
   xml:space="preserve"
   xmlns="http://www.w3.org/2000/svg"
   xmlns:svg="http://www.w3.org/2000/svg"
   xmlns:rdf="http://www.w3.org/1999/02/22-rdf-syntax-ns#"
   xmlns:cc="http://creativecommons.org/ns#"
   xmlns:dc="http://purl.org/dc/elements/1.1/"><title
     id="title161">Bangladesh University of Professionals (BUP) - বাংলাদেশ ইউনিভার্সিটি অব প্রফেশনালস্ (বিইউপি)</title><defs
     id="defs1" /><g
     id="layer1"
     transform="translate(33.459022,51.327697)"><g
       id="g161"
       transform="matrix(0.20972574,0,0,0.20972574,-26.17722,-40.269213)"><path
         id="path111"
         style="display:inline;fill:#16501d;fill-opacity:1;stroke:#fea406;stroke-width:1.6166;stroke-dasharray:none;stroke-opacity:1"
         class="cls-1"
         d="M 31.657499,-50.519397 -1.1218954,-13.041064 C 27.95843,29.241955 11.293047,88.135839 7.6227906,102.71414 c -10.1143472,40.17432 2.7753164,81.08254 56.1154384,101.23982 39.874221,15.0685 59.237211,34.0124 59.237211,34.0124 0,0 19.36352,-18.9439 59.23773,-34.0124 53.34013,-20.15728 66.22979,-61.0655 56.11544,-101.23982 -3.67026,-14.578301 -20.33564,-73.472185 8.74468,-115.755204 L 214.2939,-50.519397 Z M -14.867827,104.8489 c -7.779971,-0.40771 -16.384381,5.43683 -13.875122,15.56029 2.231821,9.00413 12.705754,12.40291 13.155787,19.97811 0.624024,10.50395 -17.063559,18.9295 -17.063559,36.06343 0,37.80311 45.506263,64.94279 93.356577,83.02542 40.824024,15.42744 57.886124,33.1436 62.269584,38.37544 4.38346,-5.23184 21.44557,-22.948 62.26959,-38.37544 47.85031,-18.08263 93.35657,-45.22231 93.35657,-83.02542 0,-17.13393 -17.68758,-25.55948 -17.06356,-36.06343 0.45003,-7.5752 10.92396,-10.97398 13.15579,-19.97811 4.46091,-17.99725 -26.2019,-22.471214 -24.91579,-2.33371 0.0669,1.04781 0.16991,3.55213 0.24081,6.64869 0.31434,13.72962 -2.14262,27.30169 -8.23877,39.85958 -9.66547,19.91062 -28.28456,36.71502 -56.53505,47.39091 -38.50997,14.55295 -56.27357,32.12104 -56.27357,32.12104 l -5.99602,5.86527 -5.99602,-5.86527 c 0,0 -17.763599,-17.56809 -56.273564,-32.12104 C 32.45536,201.29877 13.83628,184.49437 4.1708049,164.58375 c -6.0961501,-12.55789 -8.553113,-26.12996 -8.2387737,-39.85958 0.070896,-3.09656 0.1738922,-5.60088 0.2408122,-6.64869 0.562674,-8.81016 -4.989581,-12.90947 -11.0406704,-13.22658 z" /><path
         id="path5"
         style="fill:#fea406;stroke-width:0.264583"
         class="cls-2"
         d="m 60.556336,139.48038 -18.32498,27.08568 c 1.960561,1.68804 5.336465,4.32055 9.995773,7.56698 8.360824,5.82083 14.086711,8.4799 18.222143,8.99584 3.526893,0.47096 6.593212,-0.28309 8.32094,-2.82309 2.418289,-3.56393 0.494912,-8.45871 -3.754293,-12.61266 l 0.06098,-0.0847 c 5.471578,2.0611 9.188692,1.33366 10.815877,-1.08728 1.711853,-2.54263 0.939165,-5.86071 -1.296561,-8.92193 -2.251602,-3.302 -5.553651,-6.14641 -11.353313,-10.18129 -4.791599,-3.36021 -9.96665,-6.51934 -12.686564,-7.9375 z m 133.071984,0.003 c -3.69094,-0.0503 -8.23877,1.55858 -13.83998,4.88704 -5.56419,3.26761 -9.31859,5.91332 -10.54096,7.01663 l 18.20302,29.52481 7.64398,-4.46329 -6.63319,-10.73682 a 25.4,25.4 0 0 0 3.20962,-1.6831 c 5.37634,-3.18821 9.3873,-6.9665 11.18382,-10.93525 1.37848,-3.05858 1.09246,-6.2865 -0.73846,-9.26041 -1.81239,-2.91836 -5.01653,-4.42101 -8.48785,-4.34961 z m -4.20491,7.78247 c 1.66323,0.044 2.96401,0.77184 3.80803,2.14767 1.88119,3.03213 0.0188,6.6037 -4.81779,9.47178 a 21.650854,21.650854 0 0 1 -3.1564,1.62729 l -5.45599,-8.82634 c 0.58737,-0.52387 1.78852,-1.35211 3.6406,-2.466 2.29261,-1.35863 4.31831,-1.99839 5.98155,-1.9544 z m -122.25249,2.88871 c 0.828145,0.40746 2.050523,1.15072 4.167187,2.61121 4.31535,3.00037 5.963851,5.83685 4.580082,7.88738 -1.383769,2.05052 -4.932004,1.57956 -9.959082,-1.91823 l -3.119189,-2.17248 z m 43.11003,10.65155 v 19.54248 c 0,11.11249 6.39781,16.03623 17.36742,16.03623 11.36913,0 18.14204,-5.13564 18.14204,-15.93856 v -19.64015 h -9.81594 v 20.10833 c 0,6.23094 -2.83619,9.14156 -7.98762,9.14156 -4.9874,0 -7.89771,-3.07202 -7.89771,-9.14156 v -20.10833 z m -50.473405,0.21446 3.243729,2.25154 c 4.743975,3.30729 7.805228,7.0541 5.908167,9.84281 -1.963206,2.89983 -6.527379,1.3652 -10.821562,-1.62988 -1.608665,-1.11389 -2.74344,-1.90225 -3.605981,-2.67218 z" /><path
         id="path110"
         style="fill:#fea406;stroke-width:0.264583"
         class="cls-2"
         d="m 143.47109,-15.007353 c -2.0955,0 -3.45509,2.439607 -3.45509,5.7045617 0,3.1167886 1.26185,5.5562501 3.33882,5.5562501 2.07698,0 3.48971,-2.1668585 3.48971,-5.7360841 0,-3.0056637 -1.19063,-5.5114977 -3.37344,-5.5247277 z m 27.56989,0 c -2.09549,0 -3.4556,2.439607 -3.4556,5.7045617 0,3.1167886 1.26184,5.5562501 3.33882,5.5562501 2.07697,0 3.48764,-2.1668585 3.48764,-5.7360841 0,-3.0056637 -1.18804,-5.5114977 -3.37086,-5.5247277 z m 33.12305,0 c -2.0955,0 -3.45561,2.439607 -3.45561,5.7045617 0,3.1167886 1.26236,5.5562501 3.33934,5.5562501 2.07696,0 3.48712,-2.1668585 3.48712,-5.7360841 0,-3.0056637 -1.19068,-5.5114977 -3.37085,-5.5247277 z m -135.464093,0.01344 c -1.674811,0 -2.688208,1.428856 -2.688208,3.280937 0,1.582206 0.770228,2.585083 1.950269,3.2147908 0.854603,0.4788953 1.190625,0.8277745 1.190625,1.5368571 0,0.7090826 -0.389393,1.1777059 -1.12758,1.1777059 A 3.0427083,3.0427083 0 0 1 66.24479,-6.4611003 l -0.312126,2.0319174 a 3.3549166,3.3549166 0 0 0 2.01073,0.6640421 c 1.949977,0 2.868042,-1.5503362 2.868042,-3.3786051 0,-1.5345818 -0.600605,-2.5371691 -1.852083,-3.2488971 -0.923395,-0.531813 -1.322917,-0.838937 -1.322917,-1.53479 a 0.97631249,0.97631249 0 0 1 1.031979,-1.058334 2.4765,2.4765 0 0 1 1.486731,0.529167 l 0.357084,-1.986959 a 3.0982708,3.0982708 0 0 0 -1.812293,-0.550354 z m 51.122983,0 c -1.67481,0 -2.68562,1.428856 -2.68562,3.280937 0,1.582206 0.76977,2.585083 1.94717,3.2147908 0.85459,0.4788953 1.19062,0.8277745 1.19062,1.5368571 0,0.7090826 -0.38888,1.1777059 -1.12706,1.1777059 a 3.0506458,3.0506458 0 0 1 -1.78077,-0.6774781 l -0.31213,2.0319174 a 3.3575625,3.3575625 0 0 0 2.01383,0.6640421 c 1.94733,0 2.86494,-1.5503362 2.86494,-3.3786051 0,-1.5345818 -0.59796,-2.5371691 -1.85208,-3.2488971 -0.9234,-0.531813 -1.32292,-0.838937 -1.32292,-1.53479 a 0.97631249,0.97631249 0 0 1 1.03198,-1.058334 2.4765,2.4765 0 0 1 1.48725,0.529167 l 0.35708,-1.986959 a 3.0903333,3.0903333 0 0 0 -1.81229,-0.550354 z m 69.33375,0 c -1.67481,0 -2.6882,1.428856 -2.6882,3.280937 0,1.582206 0.77023,2.585083 1.95027,3.2147908 0.85459,0.4788953 1.19062,0.8277745 1.19062,1.5368571 0,0.7090826 -0.38887,1.1777059 -1.12706,1.1777059 a 3.0427083,3.0427083 0 0 1 -1.78077,-0.6774781 l -0.31213,2.0319174 a 3.3549166,3.3549166 0 0 0 2.01073,0.6640421 c 1.94998,0 2.86804,-1.5503362 2.86804,-3.3786051 0,-1.5345818 -0.6006,-2.5371691 -1.85208,-3.2488971 -0.9234,-0.531813 -1.32292,-0.838937 -1.32292,-1.53479 a 0.97631249,0.97631249 0 0 1 1.03198,-1.058334 2.4765,2.4765 0 0 1 1.48673,0.529167 l 0.3576,-1.986959 a 3.0903333,3.0903333 0 0 0 -1.81281,-0.550354 z m 5.69113,0 c -1.67481,0 -2.68769,1.428856 -2.68769,3.280937 0,1.582206 0.7697,2.585083 1.94975,3.2147908 0.8546,0.4788953 1.19063,0.8277745 1.19063,1.5368571 0,0.7090826 -0.38889,1.1777059 -1.12707,1.1777059 a 3.0427083,3.0427083 0 0 1 -1.78077,-0.6774781 l -0.31212,2.0319174 a 3.3549166,3.3549166 0 0 0 2.01073,0.6640421 c 1.94998,0 2.86804,-1.5503362 2.86804,-3.3786051 0,-1.5345818 -0.60061,-2.5371691 -1.85208,-3.2488971 -0.92339,-0.531813 -1.32292,-0.838937 -1.32292,-1.53479 a 0.97631249,0.97631249 0 0 1 1.03198,-1.058334 2.4765,2.4765 0 0 1 1.48673,0.529167 l 0.3576,-1.986959 a 3.0903333,3.0903333 0 0 0 -1.81281,-0.550354 z m 35.8221,0 c -1.67745,0 -2.6882,1.428856 -2.6882,3.280937 0,1.582206 0.77023,2.585083 1.95026,3.2147908 0.85196,0.4788953 1.19063,0.8277745 1.19063,1.5368571 0,0.7090826 -0.38887,1.1777059 -1.12706,1.1777059 a 3.0427083,3.0427083 0 0 1 -1.78077,-0.6774781 l -0.31523,2.0319174 a 3.3628541,3.3628541 0 0 0 2.01383,0.6640421 c 1.94998,0 2.86546,-1.5503362 2.86546,-3.3786051 0,-1.5345818 -0.59797,-2.5371691 -1.85208,-3.2488971 -0.92075,-0.531813 -1.32292,-0.838937 -1.32292,-1.53479 a 0.97895832,0.97895832 0 0 1 1.03456,-1.058334 2.460625,2.460625 0 0 1 1.48415,0.529167 l 0.35967,-1.986959 a 3.1035625,3.1035625 0 0 0 -1.8123,-0.550354 z m -193.270378,0.05529 c -2.328332,0 -4.055566,2.069045 -4.055566,5.6885417 -0.01058,1.608665 0.346418,3.000376 0.999939,3.96875 0.65352,0.9683739 1.590188,1.471228 2.886645,1.471228 a 5.5139166,5.5139166 0 0 0 2.38125,-0.6164998 l 0.0052,-5.7464189 h -2.645834 v 1.9233964 h 1.095541 v 2.2778972 a 1.4710833,1.4710833 0 0 1 -0.79375,0.1612304 c -1.314979,0 -2.233456,-1.3255647 -2.233456,-3.571875 0,-2.357435 1.010938,-3.521232 2.349728,-3.521232 a 2.7834166,2.7834166 0 0 1 1.653646,0.468188 l 0.328145,-1.974039 a 3.46075,3.46075 0 0 0 -1.971456,-0.529167 z m -22.150586,0.04237 a 8.4481457,8.4481457 0 0 0 -2.076876,0.225309 v 10.6996053 a 8.2655832,8.2655832 0 0 0 1.737879,0.1612304 c 1.412873,0 2.264978,-0.357312 2.794144,-0.9870198 a 3.6221458,3.6221458 0 0 0 0.735873,-2.3094198 c 0,-1.4075819 -0.600626,-2.344374 -1.41025,-2.6830404 v -0.034623 c 0.799041,-0.4524377 1.169437,-1.3385457 1.169437,-2.3254397 0,-0.986895 -0.359957,-1.73052 -0.854728,-2.132686 -0.507999,-0.470958 -1.116521,-0.613916 -2.095479,-0.613916 z m 40.150521,0 a 9.458854,9.458854 0 0 0 -2.169893,0.225309 l 0.0031,10.6996053 a 9.2604166,9.2604166 0 0 0 1.822628,0.1612304 c 1.391708,0 2.529645,-0.4525211 3.275769,-1.407666 0.68527,-0.8889991 1.179773,-2.3256689 1.179773,-4.4105835 0,-1.9235182 -0.462773,-3.2648352 -1.20096,-4.1062092 -0.68527,-0.791103 -1.561043,-1.161686 -2.910417,-1.161686 z m 57.806293,0 a 9.3265624,9.3265624 0 0 0 -2.14043,0.225309 l 0.005,10.7471476 h 1.5875 v -4.2834595 h 0.48421 c 0.65353,0.015875 0.95775,0.3888355 1.14825,1.7461466 a 19.423062,19.423062 0 0 0 0.49455,2.5373129 h 1.64331 c -0.13494,-0.4259787 -0.35756,-1.8413359 -0.57981,-3.0716472 -0.17727,-1.000124 -0.45195,-1.7281016 -0.94672,-2.0350179 v -0.050126 c 0.61119,-0.3386663 1.25368,-1.2908795 1.25368,-2.6799395 0,-1.00277 -0.23251,-1.751833 -0.65319,-2.280998 -0.50536,-0.613834 -1.23817,-0.854728 -2.29651,-0.854728 z m 44.55853,0 a 8.6809791,8.6809791 0 0 0 -2.17248,0.225309 l 0.003,10.7471476 h 1.5875 v -3.8948527 a 2.7199166,2.7199166 0 0 0 0.54777,0.048059 2.6617083,2.6617083 0 0 0 2.30994,-1.1487671 c 0.42069,-0.6138327 0.6506,-1.5265228 0.6506,-2.5848548 a 4.0401874,4.0401874 0 0 0 -0.75654,-2.521293 c -0.47361,-0.582084 -1.17984,-0.870748 -2.16937,-0.870748 z m 6.07973,0 a 9.3080415,9.3080415 0 0 0 -2.14044,0.225309 l 0.005,10.7471476 h 1.5875 v -4.2834595 h 0.48421 c 0.65351,0.015875 0.95775,0.3888355 1.14825,1.7461466 a 19.423062,19.423062 0 0 0 0.49506,2.5373129 h 1.64279 c -0.13493,-0.4259787 -0.35704,-1.8413359 -0.57929,-3.0716472 -0.17728,-1.000124 -0.45246,-1.7281016 -0.94723,-2.0350179 v -0.050126 c 0.61118,-0.3386663 1.25419,-1.2908795 1.25419,-2.6799395 0,-1.00277 -0.23302,-1.751833 -0.65371,-2.280998 -0.50535,-0.613834 -1.23817,-0.854728 -2.2965,-0.854728 z m -142.684324,0.07958 -2.169376,10.8928756 h 1.663981 l 0.494543,-2.7967285 h 2.053622 l 0.547253,2.7967285 h 1.72806 L 23.276353,-14.816667 Z m 5.249292,0 v 10.8928756 l 1.473812,0.010852 v -3.2809367 c 0,-1.7885815 -0.01865,-3.3231679 -0.06098,-4.7624999 l 0.02894,-0.01602 c 0.349249,1.277937 0.812312,2.6826283 1.233,3.8467938 l 1.51877,4.2018108 h 1.693437 V -14.816667 h -1.481564 v 3.182752 c 0,1.632477 0.02904,3.1035432 0.134876,4.542875 h -0.03204 c -0.314852,-1.2303112 -0.735252,-2.5874608 -1.158584,-3.733105 l -1.473812,-3.992522 z m 14.459583,0 v 10.8928756 h 4.434355 v -2.0691244 h -2.823084 v -8.8237512 z m 7.090523,0 -2.169376,10.8928756 h 1.674833 l 0.505395,-2.7967285 h 2.034502 l 0.54777,2.7967285 h 1.724959 L 50.075751,-14.816667 Z m 12.604916,0 v 10.8928756 h 4.521688 v -2.0215821 h -2.910417 v -2.5848551 h 2.614311 v -2.0029784 h -2.614311 v -2.261878 h 2.772957 v -2.021582 z m 11.318689,0 v 10.8928756 h 1.611788 v -4.5588949 h 2.645833 v 4.5588949 h 1.600419 V -14.816667 H 76.14031 v 4.185791 h -2.645833 v -4.185791 z m 9.374622,0 v 6.0776656 c 0,3.4739757 1.055689,4.9924602 2.84427,4.9924602 1.854728,0 2.963127,-1.6007326 2.963127,-4.9609376 v -6.1091882 h -1.5875 v 6.2704187 c 0,1.9314564 -0.497542,2.8287679 -1.317749,2.8287679 -0.820208,0 -1.283126,-0.9555199 -1.283126,-2.8287679 v -6.2704187 z m 7.204211,0 v 10.8928756 l 1.473812,0.010852 v -3.2809367 c 0,-1.7885815 -0.02123,-3.3231679 -0.06356,-4.7624999 l 0.03204,-0.01602 c 0.34925,1.277937 0.812312,2.6826283 1.233,3.8467938 l 1.51567,4.2018108 h 1.688269 V -14.816667 h -1.476396 v 3.182752 c 0,1.632477 0.03163,3.1035432 0.137459,4.542875 h -0.03152 c -0.3175,-1.2303112 -0.738415,-2.5874608 -1.159103,-3.733105 l -1.476395,-3.992522 z m 7.270874,0 v 10.8928816 h 1.611271 V -14.816667 Z m 2.402438,0 2.275316,10.8928756 h 1.88671 l 2.38125,-10.8928756 h -1.70636 l -0.90537,4.65398 c -0.24342,1.2435406 -0.46558,2.5376241 -0.64285,3.8473103 h -0.0315 c -0.16933,-1.3573111 -0.39174,-2.603687 -0.63252,-3.8948523 l -0.865074,-4.606438 z m 7.302406,0 v 10.8928756 h 4.52427 v -2.0215821 h -2.91042 v -2.5848551 h 2.61173 v -2.0029784 h -2.61173 v -2.261878 h 2.76779 v -2.021582 z m 17.56843,0 v 10.8928756 h 1.61386 V -14.816667 Z m 2.466,0 v 2.069125 h 1.90738 v 8.8237506 h 1.61437 v -8.8237506 h 1.93632 v -2.069125 z m 5.77846,0 2.25154,6.4321659 v 4.4607097 h 1.60611 v -4.5428752 l 2.33887,-6.3500004 h -1.80196 l -0.71675,2.619479 c -0.20373,0.775228 -0.37041,1.404711 -0.52916,2.082043 h -0.0212 c -0.17991,-0.709082 -0.32817,-1.288295 -0.54777,-2.082043 l -0.72761,-2.619479 z m 16.64756,0 -0.005,10.8825403 h 1.61385 v -4.3790609 h 2.54817 V -10.31875 h -2.54817 v -2.476335 h 2.73317 v -2.021582 z m 27.56938,0 v 10.8825403 h 1.61179 v -4.3790609 h 2.55023 V -10.31875 h -2.55023 v -2.476335 h 2.73006 v -2.021582 z m 5.55367,0 v 10.8928756 h 4.52168 v -2.0215821 h -2.91041 v -2.5848551 h 2.61431 v -2.0029784 h -2.61431 v -2.261878 h 2.77296 v -2.021582 z m 17.01033,0 v 10.8928756 h 1.61127 V -14.816667 Z m 10.55956,0 v 10.8928756 l 1.48415,0.010852 v -3.2809367 c 0,-1.7885815 -0.0213,-3.3231679 -0.0636,-4.7624999 l 0.032,-0.01602 c 0.3466,1.277937 0.80967,2.6826283 1.23299,3.8467938 l 1.51567,4.2018108 h 1.68569 V -14.816667 h -1.47381 v 3.182752 c 0,1.632477 0.0317,3.1035432 0.13487,4.542875 h -0.0315 c -0.31486,-1.2303112 -0.73576,-2.5874608 -1.1591,-3.733105 l -1.48156,-3.992522 z m 8.9271,0 -2.17247,10.8928756 h 1.66708 l 0.50539,-2.7967285 h 2.03192 l 0.54777,2.7967285 h 1.73788 l -2.2009,-10.8928756 z m 5.25705,0 v 10.8928756 h 4.43177 v -2.0691244 h -2.82308 v -8.8237512 z m -207.32999,1.714624 c 0.727603,0 1.137398,0.447085 1.137398,1.259355 0,0.81227 -0.452087,1.34152 -1.293461,1.34152 H 14.75956 v -2.537313 a 2.9580416,2.9580416 0 0 1 0.68523,-0.06356 z m 97.93563,0.03152 c 0.73554,0.01587 1.17719,0.516 1.17719,1.51877 0,0.952499 -0.47904,1.566313 -1.27279,1.566313 h -0.632 v -3.005501 a 2.69875,2.69875 0 0 1 0.7276,-0.07958 z m 50.63567,0 c 0.73818,0.01587 1.18029,0.516 1.18029,1.51877 0,0.952499 -0.48163,1.566313 -1.27537,1.566313 h -0.62994 v -3.005501 a 2.6722916,2.6722916 0 0 1 0.72502,-0.07958 z m -20.58737,0.02946 c 1.10595,0 1.7172,1.679651 1.7172,3.6349198 0,2.1166646 -0.63214,3.7041667 -1.70635,3.7041667 -1.07421,0 -1.72806,-1.5023808 -1.72806,-3.6349202 0,-2.1166643 0.61125,-3.7041663 1.71721,-3.7041663 z m 27.56989,0 c 1.10596,0 1.71721,1.679651 1.71721,3.6349198 0,2.1166646 -0.63267,3.7041667 -1.70688,3.7041667 -1.07419,0 -1.72754,-1.5023808 -1.72754,-3.6349202 0,-2.1166643 0.61125,-3.7041663 1.71721,-3.7041663 z m 33.12304,0 c 1.10596,0 1.71721,1.679651 1.71721,3.6349198 0,2.1166646 -0.63215,3.7041667 -1.70636,3.7041667 -1.0742,0 -1.72806,-1.5023808 -1.72806,-3.6349202 0,-2.1166643 0.61125,-3.7041663 1.71721,-3.7041663 z m -46.28865,0.0026 c 0.80169,0 1.25419,0.59765 1.25419,1.60042 0,1.113893 -0.52677,1.7781856 -1.37873,1.7781856 a 1.6615833,1.6615833 0 0 1 -0.52916,-0.066146 l -0.0103,-3.2173746 a 1.8706041,1.8706041 0 0 1 0.66404,-0.09509 z m -102.264044,0.03152 c 1.381123,0 2.232939,1.196001 2.232939,3.4581869 0,2.6034974 -0.947231,3.831146 -2.402438,3.815271 a 1.8864791,1.8864791 0 0 1 -0.558105,-0.050126 v -7.1251469 a 2.1828125,2.1828125 0 0 1 0.727604,-0.09818 z m -6.604248,0.02119 h 0.0078 c 0.105834,0.648229 0.230601,1.455064 0.357601,2.100647 l 0.441834,2.3125207 h -1.555978 l 0.420646,-2.3125207 c 0.116416,-0.629708 0.222313,-1.452418 0.328146,-2.100647 z m 169.531782,0 h 0.0212 c 0.10583,0.648229 0.23274,1.455064 0.35709,2.100647 l 0.44441,2.3125207 h -1.57148 l 0.42323,-2.3125207 c 0.11377,-0.629708 0.21974,-1.452418 0.32557,-2.100647 z m -196.370971,0.01085 h 0.02377 c 0.0926,0.648229 0.230084,1.455065 0.357084,2.100647 l 0.444417,2.3016687 -1.57148,0.010852 0.420646,-2.3125207 c 0.116417,-0.629707 0.222374,-1.452418 0.325563,-2.100647 z m -7.365959,4.2359176 h 0.547254 c 0.801686,0 1.444873,0.4362536 1.444873,1.5342733 0,1.1482905 -0.642856,1.5663127 -1.370459,1.5663127 a 3.3893125,3.3893125 0 0 1 -0.621668,-0.031523 z" /><path
         id="path49"
         style="display:inline;opacity:1;fill:#fea406;stroke-width:0.269425"
         class="cls-2"
         d="m -5.8895393,180.89852 -9.8768287,6.89333 5.036156,7.82051 1.6634172,-1.16284 -3.6971702,-5.74231 2.68571,-1.87742 3.3273494,5.1625 1.6639328,-1.16285 -3.3247709,-5.16196 2.1864263,-1.52845 3.5759598,5.54689 1.67166963,-1.16822 z m 259.8974293,1.11829 -5.09134,7.49623 9.71023,7.14674 5.22906,-7.68843 -1.63762,-1.20419 -3.83438,5.6462 -2.64083,-1.94344 3.43308,-5.07391 -1.63711,-1.20687 -3.43308,5.0739 -2.15239,-1.58321 3.69717,-5.45079 z m -254.51053698,7.19076 -1.82485872,6.7924 -7.341214,1.09951 1.9063534,2.2371 4.8329357,-0.76663 -1.3389863,4.88707 1.914606,2.25966 1.89345855,-7.37223 6.77900475,-1.09948 -1.8485851,-2.16894 -4.40998933,0.82463 1.28586003,-4.4941 z M 248.08613,192.59143 a 4.2015696,4.3732531 0 0 0 -0.77007,0.0741 c -1.01584,0.20158 -2.02355,0.8667 -3.02355,1.99553 a 6.1821964,6.4348118 0 0 0 -1.48959,2.59789 5.2552631,5.4700024 0 0 0 0.0871,3.29849 6.8661728,7.1467367 0 0 0 1.90429,2.92161 7.2121222,7.5068222 0 0 0 2.80434,1.69917 4.9964611,5.2006253 0 0 0 3.05811,-0.0221 6.4726883,6.7371737 0 0 0 2.77804,-1.94076 7.9383521,8.2627271 0 0 0 1.55304,-2.614 6.5730401,6.841626 0 0 0 0.52816,-2.58123 l -3.48879,-3.33715 -3.50168,3.96366 1.47618,1.41035 1.85116,-2.1029 1.11205,1.06406 a 5.0968129,5.3050776 0 0 1 -0.35383,1.50322 4.1170628,4.2852933 0 0 1 -0.79225,1.37438 3.1320311,3.2600114 0 0 1 -2.44794,1.14352 c -0.9419,-0.0146 -1.93354,-0.51945 -2.97403,-1.51449 -0.96479,-0.91993 -1.48211,-1.85257 -1.55253,-2.79815 a 3.2482279,3.3809562 0 0 1 0.96144,-2.61935 2.8441801,2.9603982 0 0 1 1.54478,-0.97065 2.5008714,2.6030614 0 0 1 1.65568,0.25018 l 1.28586,-2.14424 a 4.2015696,4.3732531 0 0 0 -2.20603,-0.65121 z M 7.5405547,199.87077 c -0.1826576,-0.001 -0.367042,0.008 -0.5534407,0.0268 -1.4911905,0.15208 -2.890121,1.00303 -4.1964531,2.55332 -1.2341493,1.46417 -1.82506501,2.96693 -1.7722484,4.50805 a 5.110017,5.3188213 0 0 0 1.848585,3.93897 c 0.9586225,0.8796 1.957273,1.3555 2.9977612,1.42967 1.0387277,0.0806 2.1203447,-0.26605 3.2453396,-1.03937 L 7.8479645,209.1139 c -0.7235882,0.54425 -1.3814465,0.81674 -2.0126057,0.82194 a 2.4137238,2.5123528 0 0 1 -1.6371119,-0.65658 2.6408357,2.7487449 0 0 1 -0.9531766,-2.19901 c 0.014084,-0.87042 0.5172747,-1.89439 1.5102279,-3.07086 0.9313338,-1.10865 1.8116142,-1.72148 2.6408358,-1.83877 a 2.7094975,2.8202123 0 0 1 2.2395525,0.73123 2.4533363,2.5535839 0 0 1 0.5864515,3.28184 l 2.160121,1.19023 a 4.6901241,4.8817709 0 0 0 0.528167,-2.54796 c -0.116196,-1.29557 -0.719086,-2.44344 -1.808868,-3.44398 -1.095287,-0.99895 -2.2824,-1.50286 -3.5610033,-1.51127 z m 231.0901453,2.2355 a 3.9903027,4.1533535 0 0 0 -1.37354,0.33661 8.680427,9.0351245 0 0 0 -1.88573,1.32498 l -3.37738,2.91356 7.60014,9.52988 3.47797,-3.00161 a 7.3520866,7.6525057 0 0 0 1.47618,-1.61328 4.2253371,4.3979918 0 0 0 0.69218,-1.88331 5.2526222,5.4672536 0 0 0 -0.35898,-2.52595 7.7799019,8.0978024 0 0 0 -1.33641,-2.27308 8.759652,9.1175868 0 0 0 -2.09409,-1.99016 5.1496296,5.3600524 0 0 0 -2.11268,-0.79134 3.9903027,4.1533535 0 0 0 -0.70766,-0.0263 z m 0.11863,2.37884 a 2.7306241,2.8422021 0 0 1 1.25698,0.47029 6.9850104,7.2704302 0 0 1 1.53963,1.53652 7.5607125,7.8696566 0 0 1 1.20178,1.90478 2.4955898,2.597564 0 0 1 0.26408,1.33573 2.234147,2.3254382 0 0 1 -0.43067,1.04205 6.6654692,6.937832 0 0 1 -1.05634,1.05548 l -1.38128,1.19022 -5.01758,-6.32211 0.82422,-0.72047 a 11.09151,11.544728 0 0 1 1.5845,-1.21761 2.2896046,2.3831618 0 0 1 1.21468,-0.27488 z m -222.976279,1.24821 -6.7872577,10.17036 7.4288987,5.37348 1.143502,-1.71206 -5.458586,-3.9363 1.848584,-2.76538 4.901536,3.52934 1.146082,-1.71528 -4.904116,-3.54598 1.505071,-2.25376 5.266198,3.81227 1.15124,-1.71796 z m 214.860869,1.94883 -7.39434,4.99443 6.47263,10.38458 7.59807,-5.1233 -1.09088,-1.74857 -5.58806,3.76288 -1.75884,-2.82551 5.01759,-3.38386 -1.09037,-1.75071 -5.0176,3.38385 -1.4344,-2.30368 5.38225,-3.63082 z m -206.040374,4.40871 -5.830986,10.66804 7.275193,4.30994 0.990314,-1.81138 -5.188831,-3.07301 4.840158,-8.85664 z m 192.334334,4.21386 -2.12814,1.16285 5.48231,10.86828 7.41033,-4.04849 -0.93254,-1.84736 -5.28168,2.88887 z m -183.754197,0.74516 -5.089282,11.07713 7.550108,3.75751 0.863945,-1.88278 -5.384829,-2.67735 4.225337,-9.19702 z m 180.704347,0.77201 -2.21067,1.01468 1.6825,8.67787 -5.26053,-7.034 -2.61195,1.19829 1.32042,8.69397 -4.93557,-7.0254 -2.24988,1.03347 7.39434,10.1317 2.38191,-1.09681 -1.42615,-9.45847 5.74382,7.47099 2.32929,-1.06889 z m -171.857547,3.44184 -4.693157,11.37401 8.300064,3.73013 0.79225,-1.92412 -6.102805,-2.72673 1.278122,-3.09503 5.482314,2.44918 0.792251,-1.92412 -5.487472,-2.45187 1.056334,-2.52057 5.891849,2.63601 0.792251,-1.92413 z m 10.219828,4.51879 -4.684905,11.36864 2.049227,0.92395 3.058109,-7.42162 1.346722,9.38385 2.213248,0.98998 4.687483,-11.37723 -2.049226,-0.91267 -3.129288,7.59502 -1.344143,-9.59323 z m 143.932769,0.51807 c -0.83768,-0.006 -1.70716,0.19649 -2.60834,0.6088 a 6.5281458,6.7948973 0 0 0 -2.15496,1.52577 4.6029766,4.7910623 0 0 0 -0.97433,1.6659 5.5695224,5.7971029 0 0 0 -0.35692,2.01753 7.5739168,7.8834003 0 0 0 0.73448,3.13314 c 0.7676,1.79401 1.84677,2.986 3.2376,3.57605 1.39084,0.59006 2.89437,0.51314 4.51057,-0.23085 1.59682,-0.73299 2.65316,-1.83249 3.16901,-3.2985 0.51583,-1.46598 0.38706,-3.11524 -0.38581,-4.94774 -0.7817,-1.84715 -1.87334,-3.06545 -3.27475,-3.65551 -0.61311,-0.25814 -1.24502,-0.38968 -1.89655,-0.39459 z m -0.20477,2.24194 a 3.0237568,3.1473128 0 0 1 1.02951,0.27166 c 0.80986,0.37383 1.49371,1.21711 2.05181,2.52917 0.55809,1.31207 0.69474,2.42628 0.40953,3.34253 a 3.0079118,3.1308204 0 0 1 -1.73769,1.9735 3.0396019,3.1638053 0 0 1 -2.58822,0 c -0.84859,-0.40132 -1.54494,-1.24321 -2.08895,-2.52596 v -5.3e-4 c -0.55281,-1.30106 -0.68894,-2.40142 -0.40901,-3.30117 a 3.0554469,3.1802978 0 0 1 1.77947,-1.97352 3.0237568,3.1473128 0 0 1 1.55355,-0.31568 z m -9.52093,1.88011 -2.03325,0.95615 3.27217,7.53166 -7.70639,-5.44218 -2.12815,1.00018 4.89844,11.26985 2.03376,-0.95347 -3.19531,-7.35612 7.563,5.29993 2.19469,-1.03615 z m -120.754281,1.8801 c -0.630955,0.004 -1.25027,0.13415 -1.856838,0.3903 -1.387318,0.58823 -2.49852,1.81472 -3.333024,3.6802 -0.790489,1.76469 -0.951601,3.38028 -0.483293,4.84627 a 5.1073762,5.3160726 0 0 0 2.84973,3.23515 c 1.154924,0.56073 2.241967,0.72588 3.261329,0.49499 1.019362,-0.2309 1.964026,-0.87963 2.83374,-1.94614 l -1.801132,-1.72065 c -0.546653,0.73392 -1.114228,1.19021 -1.703133,1.37437 a 2.4005197,2.4986091 0 0 1 -1.748522,-0.15139 2.6408357,2.7487449 0 0 1 -1.510228,-1.82803 c -0.22007,-0.83928 -0.01331,-1.96819 0.620494,-3.38653 0.595067,-1.33589 1.275648,-2.18203 2.041489,-2.53936 a 2.7068566,2.8174635 0 0 1 2.344773,0.0435 2.4533363,2.5535839 0 0 1 1.431312,2.98282 l 2.395321,0.50841 a 4.67692,4.8680272 0 0 0 -0.182073,-2.60057 c -0.459505,-1.21495 -1.349819,-2.1394 -2.670236,-2.77345 -0.848203,-0.41128 -1.678482,-0.6148 -2.489709,-0.60987 z m 110.631931,2.86417 -2.90492,1.43718 -2.12556,7.13064 -2.25812,-4.96976 -2.17044,1.0689 5.08619,11.18771 2.15755,-1.06943 -1.53706,-3.37796 0.90831,-2.74874 5.34252,3.79563 2.80693,-1.37437 -7.37319,-4.72763 z m -101.912531,1.00018 -5.120231,11.17106 8.160288,4.03775 0.863429,-1.88008 -5.995007,-2.98229 1.39469,-3.02362 5.387409,2.67465 0.86343,-1.88277 -5.387408,-2.67466 1.133186,-2.47388 5.79127,2.8776 0.866009,-1.89083 z m 13.542535,6.80314 -0.913976,1.86399 3.140119,1.67127 -4.489422,9.15567 2.149806,1.13816 4.489421,-9.15354 3.131867,1.6659 0.905723,-1.86346 z m 72.226856,0.2942 -2.13123,1.14889 2.1498,4.31854 -4.17273,2.25376 -2.15754,-4.32069 -2.13124,1.14888 5.47974,10.99499 2.1364,-1.14085 -2.39533,-4.80224 4.17531,-2.25644 2.39532,4.80494 2.13123,-1.15479 z m -62.115342,5.10988 -5.732987,10.84412 2.104417,1.19828 2.495899,-4.73354 4.122173,2.36113 -2.506209,4.74159 2.112669,1.20418 5.75206,-10.84681 -2.11266,-1.20363 -2.25812,4.26591 -4.1196,-2.36112 2.25502,-4.26592 z m 49.749832,2.10933 c -0.87293,0.0138 -1.83623,0.32256 -2.89048,0.92556 a 6.1135346,6.3633444 0 0 0 -2.21066,1.96224 5.2209321,5.4342686 0 0 0 -0.93203,3.16105 6.8661728,7.1467367 0 0 0 0.90314,3.40318 7.2860657,7.5837871 0 0 0 2.13382,2.54527 4.9964611,5.2006253 0 0 0 2.90492,0.99804 6.5545542,6.8223849 0 0 0 3.22986,-0.91535 7.9436338,8.2682247 0 0 0 2.2736,-1.95742 6.4726883,6.7371737 0 0 0 1.29927,-2.27038 l -2.27926,-4.32069 -4.53688,2.59198 0.96401,1.8248 2.3979,-1.39048 0.72365,1.37438 a 5.0677637,5.2748414 0 0 1 -0.79225,1.30565 4.0932953,4.2605545 0 0 1 -1.18322,1.02756 3.1373128,3.2655089 0 0 1 -2.6723,0.2754 c -0.88732,-0.32985 -1.67175,-1.13531 -2.35045,-2.42447 -0.6285,-1.1957 -0.83464,-2.25163 -0.61017,-3.16696 a 3.2482279,3.3809562 0 0 1 1.71396,-2.16303 2.8758701,2.9933832 0 0 1 1.77225,-0.39567 2.5299206,2.6332976 0 0 1 1.49423,0.79134 l 1.87799,-1.60255 a 4.2253371,4.3979918 0 0 0 -2.64083,-1.54186 c -0.19179,-0.0282 -0.38862,-0.0408 -0.59007,-0.0376 z m -39.35,4.17466 -5.60919,10.9123 2.11267,1.16822 2.33188,-4.5408 0.42759,0.23891 a 3.9031551,4.062645 0 0 1 1.00372,0.71777 1.848585,1.9241214 0 0 1 0.40386,0.80799 16.444484,17.116435 0 0 1 0.2909,2.22638 l 0.32444,3.21313 2.52994,1.41035 -0.18466,-2.84217 a 13.539564,14.092815 0 0 0 -0.29606,-2.44379 5.5457549,5.7723642 0 0 0 -0.66279,-1.54726 c 0.99032,0.37658 1.85659,0.42306 2.59339,0.14818 a 3.1690029,3.2984939 0 0 0 1.73769,-1.64924 3.4330864,3.5733684 0 0 0 0.425,-1.97352 2.7306241,2.8422021 0 0 0 -0.68135,-1.72333 c -0.40669,-0.47279 -1.1698,-1.02254 -2.29216,-1.64925 z m 29.28955,1.35236 -2.07604,1.25895 3.31187,5.91516 a 13.164566,13.702494 0 0 1 0.92687,1.87205 1.6584448,1.7262118 0 0 1 -0.0238,1.25035 c -0.15845,0.43157 -0.5308,0.82485 -1.12235,1.18219 a 2.5484064,2.6525388 0 0 1 -1.5845,0.43432 1.9251692,2.0038351 0 0 1 -1.22293,-0.67107 12.866152,13.391885 0 0 1 -1.07748,-1.73999 l -3.24276,-5.79115 -2.07296,1.25894 3.18499,5.7117 a 14.350301,14.936679 0 0 0 1.7217,2.5893 3.2931221,3.4276848 0 0 0 1.24357,0.82462 3.6443533,3.793268 0 0 0 1.71913,0.18952 c 0.63644,-0.0687 1.44748,-0.40377 2.42987,-0.99749 a 6.0158237,6.2616409 0 0 0 1.79289,-1.52578 3.5968183,3.7437906 0 0 0 0.72106,-1.60522 3.3300938,3.4661673 0 0 0 -0.13204,-1.71528 15.974415,16.627159 0 0 0 -1.35188,-2.82552 z m -28.12232,1.67126 1.6531,0.92072 c 0.85827,0.47828 1.36513,0.77783 1.52623,0.89603 a 1.4709454,1.5310509 0 0 1 0.57613,0.87401 1.4260513,1.4843223 0 0 1 -0.17433,1.04743 1.5660155,1.6300057 0 0 1 -0.63392,0.69792 1.2834462,1.33589 0 0 1 -0.83196,0.13207 c -0.29929,-0.0513 -0.95705,-0.35985 -1.97289,-0.92609 l -1.56593,-0.87134 z m 13.36975,2.2457 a 6.5281458,6.7948973 0 0 0 -1.72893,0.2389 4.6689975,4.859781 0 0 0 -1.65051,0.92342 5.5800859,5.808098 0 0 0 -1.28638,1.55045 7.5554309,7.8641592 0 0 0 -0.89231,3.08966 c -0.21303,1.96078 0.13366,3.56251 1.04034,4.80493 0.90668,1.24244 2.24041,1.96894 4.00097,2.17968 1.7359,0.2089 3.18458,-0.18444 4.34654,-1.17949 1.16197,-0.99505 1.85341,-2.48481 2.07348,-4.4694 0.22711,-1.99559 -0.12009,-3.62107 -1.04086,-4.87635 -0.92078,-1.25525 -2.25071,-1.98824 -3.99014,-2.19899 a 6.5281458,6.7948973 0 0 0 -0.8722,-0.0629 z m 0.13307,2.14961 a 3.0686511,3.1940415 0 0 1 0.5359,0.0354 3.0369611,3.1610566 0 0 1 2.24988,1.32768 c 0.51407,0.74949 0.69013,1.83599 0.52816,3.25984 -0.16197,1.42385 -0.58716,2.45686 -1.27554,3.09824 a 3.2059745,3.3369763 0 0 1 -4.69006,-0.57498 c -0.53873,-0.79531 -0.72973,-1.88831 -0.57305,-3.27917 0.15669,-1.41286 0.57811,-2.43405 1.26472,-3.06442 a 3.0686511,3.1940415 0 0 1 1.95999,-0.80261 z" /><g
         id="g160"
         transform="translate(431.76486,-410.0226)"><g
           id="g159"><path
             style="opacity:1;vector-effect:none;fill:#140a7a;fill-opacity:1;fill-rule:evenodd;stroke-width:0.169617;stop-color:#000000;stop-opacity:1"
             d="m -358.95174,469.43647 a 58.049583,58.049583 0 0 0 -7.88737,28.95275 58.049583,58.049583 0 0 0 58.04142,58.04917 v -58.044 z"
             id="path153" /><path
             style="opacity:1;vector-effect:none;fill:#50a2ca;fill-opacity:1;fill-rule:evenodd;stroke-width:0.169617;stop-color:#000000;stop-opacity:1"
             d="m -258.52737,469.37807 -50.25637,29.01632 v 58.044 a 58.049583,58.049583 0 0 0 58.044,-58.04917 58.049583,58.049583 0 0 0 -7.78763,-29.01115 z"
             id="path152" /><path
             style="opacity:1;vector-effect:none;fill:#fd0807;fill-opacity:1;fill-rule:evenodd;stroke-width:0.169617;stop-color:#000000;stop-opacity:1"
             d="m -308.78942,440.34005 a 58.049583,58.049583 0 0 0 -50.1556,29.08453 l 50.1556,28.95792 50.25533,-29.01631 a 58.049583,58.049583 0 0 0 -50.25533,-29.02614 z"
             id="circle151" /></g><path
           id="circle149"
           style="display:inline;opacity:1;fill:none;fill-rule:evenodd;stroke:#fea406;stroke-width:0.926042;stroke-dasharray:none;stroke-opacity:1;stop-color:#000000;stop-opacity:1"
           d="m -250.73984,498.38947 a 58.049583,58.049583 0 0 1 -58.04958,58.04958 58.049583,58.049583 0 0 1 -58.04958,-58.04958 58.049583,58.049583 0 0 1 58.04958,-58.04959 58.049583,58.049583 0 0 1 58.04958,58.04959 z" /><path
           id="path159"
           style="font-variation-settings:normal;display:inline;opacity:1;fill:none;fill-opacity:1;stroke:#fea406;stroke-width:0.926042;stroke-linecap:butt;stroke-linejoin:miter;stroke-miterlimit:4;stroke-dasharray:none;stroke-dashoffset:0;stroke-opacity:1;stop-color:#000000;stop-opacity:1"
           d="m -308.78942,498.38947 v 58.04965 m 0,-58.04963 -50.24961,-29.01164 m 50.24959,29.01164 50.24962,-29.01164" /></g></g></g><metadata
     id="metadata161"><rdf:RDF><cc:Work
         rdf:about=""><dc:title>Bangladesh University of Professionals (BUP) - বাংলাদেশ ইউনিভার্সিটি অব প্রফেশনালস্ (বিইউপি)</dc:title></cc:Work></rdf:RDF></metadata></svg>
